HIERARCHY
ROOT hips
{
	OFFSET -0.003675 0.299928 -0.021708
	CHANNELS 6 Xposition Yposition Zposition Xrotation Yrotation Zrotation
	JOINT LowerBack
	{
		OFFSET 0.000919 0.177588 0.009275
		CHANNELS 3 Xrotation Yrotation Zrotation
		JOINT spine
		{
			OFFSET 0.000919 0.177588 0.009275
			CHANNELS 3 Xrotation Yrotation Zrotation
			JOINT chest
			{
				OFFSET 0.000456 0.100015 0.004638
				CHANNELS 3 Xrotation Yrotation Zrotation
				JOINT neck
				{
					OFFSET 0.000456 0.100015 0.004638
					CHANNELS 3 Xrotation Yrotation Zrotation
					JOINT head
					{
						OFFSET 0.000924 0.155147 0.009274
						CHANNELS 6 Xposition Yposition Zposition Xrotation Yrotation Zrotation
						End Site
						{
							OFFSET 0.000000 0.153400 0.000000
						}
					}
				}
				JOINT shoulder.L
				{
					OFFSET 0.019937 0.078966 0.057518
					CHANNELS 6 Xposition Yposition Zposition Yrotation Xrotation Zrotation
					JOINT upper_arm.L
					{
						OFFSET 0.177024 -0.020465 -0.095062
						CHANNELS 6 Xposition Yposition Zposition Xrotation Yrotation Zrotation
						JOINT forearm.L
						{
							OFFSET 0.247100 -0.135500 -0.061800
							CHANNELS 3 Xrotation Yrotation Zrotation
							JOINT hand.L
							{
								OFFSET 0.217000 -0.143000 0.039300
								CHANNELS 3 Xrotation Yrotation Zrotation
								JOINT palm.01.L
								{
									OFFSET 0.021770 -0.038291 0.012954
									CHANNELS 6 Xposition Yposition Zposition Yrotation Xrotation Zrotation
									JOINT f_index.01.L
									{
										OFFSET 0.053215 -0.044137 0.008236
										CHANNELS 3 Xrotation Yrotation Zrotation
										JOINT f_index.02.L
										{
											OFFSET 0.036108 -0.024723 -0.010656
											CHANNELS 3 Xrotation Yrotation Zrotation
											JOINT f_index.03.L
											{
												OFFSET 0.021342 -0.014948 -0.010846
												CHANNELS 3 Xrotation Yrotation Zrotation
												End Site
												{
													OFFSET 0.015600 -0.009860 -0.013421
												}
											}
										}
									}
									JOINT thumb.01.L
									{
										OFFSET -0.009090 -0.002348 -0.024223
										CHANNELS 6 Xposition Yposition Zposition Xrotation Yrotation Zrotation
										JOINT thumb.02.L
										{
											OFFSET 0.019713 -0.035076 -0.011120
											CHANNELS 3 Xrotation Yrotation Zrotation
											JOINT thumb.03.L
											{
												OFFSET 0.024877 -0.021748 -0.005176
												CHANNELS 3 Xrotation Yrotation Zrotation
												End Site
												{
													OFFSET 0.016125 -0.013029 -0.001569
												}
											}
										}
									}
								}
								JOINT palm.02.L
								{
									OFFSET 0.032823 -0.025104 0.012281
									CHANNELS 6 Xposition Yposition Zposition Yrotation Xrotation Zrotation
									JOINT f_middle.01.L
									{
										OFFSET 0.055723 -0.038469 0.008037
										CHANNELS 3 Xrotation Yrotation Zrotation
										JOINT f_middle.02.L
										{
											OFFSET 0.038167 -0.027473 -0.015582
											CHANNELS 3 Xrotation Yrotation Zrotation
											JOINT f_middle.03.L
											{
												OFFSET 0.021707 -0.016587 -0.017037
												CHANNELS 3 Xrotation Yrotation Zrotation
												End Site
												{
													OFFSET 0.014112 -0.010584 -0.014294
												}
											}
										}
									}
								}
								JOINT palm.03.L
								{
									OFFSET 0.039230 -0.011402 0.008390
									CHANNELS 6 Xposition Yposition Zposition Yrotation Xrotation Zrotation
									JOINT f_ring.01.L
									{
										OFFSET 0.061796 -0.031470 0.007910
										CHANNELS 3 Xrotation Yrotation Zrotation
										JOINT f_ring.02.L
										{
											OFFSET 0.033092 -0.023401 -0.019127
											CHANNELS 3 Xrotation Yrotation Zrotation
											JOINT f_ring.03.L
											{
												OFFSET 0.021392 -0.015362 -0.017824
												CHANNELS 3 Xrotation Yrotation Zrotation
												End Site
												{
													OFFSET 0.008670 -0.007297 -0.014686
												}
											}
										}
									}
								}
								JOINT palm.04.L
								{
									OFFSET 0.043417 0.002450 0.002889
									CHANNELS 6 Xposition Yposition Zposition Yrotation Xrotation Zrotation
									JOINT f_pinky.01.L
									{
										OFFSET 0.069986 -0.026156 0.003627
										CHANNELS 3 Xrotation Yrotation Zrotation
										JOINT f_pinky.02.L
										{
											OFFSET 0.018520 -0.012813 -0.016429
											CHANNELS 3 Xrotation Yrotation Zrotation
											JOINT f_pinky.03.L
											{
												OFFSET 0.013822 -0.009796 -0.014947
												CHANNELS 3 Xrotation Yrotation Zrotation
												End Site
												{
													OFFSET 0.007238 -0.006103 -0.011657
												}
											}
										}
									}
								}
							}
						}
					}
				}
				JOINT shoulder.R
				{
					OFFSET -0.016662 0.078957 0.057696
					CHANNELS 6 Xposition Yposition Zposition Yrotation Xrotation Zrotation
					JOINT upper_arm.R
					{
						OFFSET -0.176972 -0.020537 -0.095144
						CHANNELS 6 Xposition Yposition Zposition Xrotation Yrotation Zrotation
						JOINT forearm.R
						{
							OFFSET -0.247100 -0.135500 -0.061800
							CHANNELS 3 Xrotation Yrotation Zrotation
							JOINT hand.R
							{
								OFFSET -0.217000 -0.143000 0.039300
								CHANNELS 3 Xrotation Yrotation Zrotation
								JOINT palm.01.R
								{
									OFFSET -0.021773 -0.038278 0.012988
									CHANNELS 6 Xposition Yposition Zposition Yrotation Xrotation Zrotation
									JOINT f_index.01.R
									{
										OFFSET -0.053212 -0.044139 0.008249
										CHANNELS 3 Xrotation Yrotation Zrotation
										JOINT f_index.02.R
										{
											OFFSET -0.036049 -0.024835 -0.010634
											CHANNELS 3 Xrotation Yrotation Zrotation
											JOINT f_index.03.R
											{
												OFFSET -0.021371 -0.014881 -0.010866
												CHANNELS 3 Xrotation Yrotation Zrotation
												End Site
												{
													OFFSET -0.015584 -0.009883 -0.013422
												}
											}
										}
									}
									JOINT thumb.01.R
									{
										OFFSET 0.009113 -0.002381 -0.024211
										CHANNELS 6 Xposition Yposition Zposition Xrotation Yrotation Zrotation
										JOINT thumb.02.R
										{
											OFFSET -0.019694 -0.035097 -0.011088
											CHANNELS 3 Xrotation Yrotation Zrotation
											JOINT thumb.03.R
											{
												OFFSET -0.024867 -0.021762 -0.005168
												CHANNELS 3 Xrotation Yrotation Zrotation
												End Site
												{
													OFFSET -0.016120 -0.013036 -0.001565
												}
											}
										}
									}
								}
								JOINT palm.02.R
								{
									OFFSET -0.032828 -0.025095 0.012286
									CHANNELS 6 Xposition Yposition Zposition Yrotation Xrotation Zrotation
									JOINT f_middle.01.R
									{
										OFFSET -0.055721 -0.038472 0.008040
										CHANNELS 3 Xrotation Yrotation Zrotation
										JOINT f_middle.02.R
										{
											OFFSET -0.038101 -0.027593 -0.015557
											CHANNELS 3 Xrotation Yrotation Zrotation
											JOINT f_middle.03.R
											{
												OFFSET -0.021730 -0.016530 -0.017054
												CHANNELS 3 Xrotation Yrotation Zrotation
												End Site
												{
													OFFSET -0.014096 -0.010608 -0.014293
												}
											}
										}
									}
								}
								JOINT palm.03.R
								{
									OFFSET -0.039192 -0.011488 0.008390
									CHANNELS 6 Xposition Yposition Zposition Yrotation Xrotation Zrotation
									JOINT f_ring.01.R
									{
										OFFSET -0.061839 -0.031387 0.007876
										CHANNELS 3 Xrotation Yrotation Zrotation
										JOINT f_ring.02.R
										{
											OFFSET -0.033068 -0.023437 -0.019125
											CHANNELS 3 Xrotation Yrotation Zrotation
											JOINT f_ring.03.R
											{
												OFFSET -0.021371 -0.015393 -0.017822
												CHANNELS 3 Xrotation Yrotation Zrotation
												End Site
												{
													OFFSET -0.008654 -0.007321 -0.014684
												}
											}
										}
									}
								}
								JOINT palm.04.R
								{
									OFFSET -0.043421 0.002443 0.002845
									CHANNELS 6 Xposition Yposition Zposition Yrotation Xrotation Zrotation
									JOINT f_pinky.01.R
									{
										OFFSET -0.069983 -0.026169 0.003599
										CHANNELS 3 Xrotation Yrotation Zrotation
										JOINT f_pinky.02.R
										{
											OFFSET -0.018501 -0.012842 -0.016428
											CHANNELS 3 Xrotation Yrotation Zrotation
											JOINT f_pinky.03.R
											{
												OFFSET -0.013806 -0.009821 -0.014946
												CHANNELS 3 Xrotation Yrotation Zrotation
												End Site
												{
													OFFSET -0.007226 -0.006121 -0.011655
												}
											}
										}
									}
								}
							}
						}
					}
				}
			}
		}
	}
	JOINT pelvis.L
	{
		OFFSET 0.000000 0.000000 0.000000
		CHANNELS 6 Xposition Yposition Zposition Xrotation Yrotation Zrotation
		JOINT thigh.L
		{
			OFFSET 0.101675 0.001054 -0.000000
			CHANNELS 3 Xrotation Yrotation Zrotation
			JOINT shin.L
			{
				OFFSET 0.000000 -0.534800 0.041000
				CHANNELS 3 Xrotation Yrotation Zrotation
				JOINT foot.L
				{
					OFFSET 0.000000 -0.452000 -0.044800
					CHANNELS 3 Xrotation Yrotation Zrotation
					JOINT toe.L
					{
						OFFSET -0.000000 -0.068500 0.109600
						CHANNELS 3 Xrotation Yrotation Zrotation
						End Site
						{
							OFFSET -0.000000 0.000000 0.067200
						}
					}
				}
				JOINT heel.L
				{
					OFFSET 0.000000 -0.452000 -0.044800
					CHANNELS 3 Xrotation Yrotation Zrotation
					JOINT heel.02.L
					{
						OFFSET -0.038000 -0.085200 0.016200
						CHANNELS 6 Xposition Yposition Zposition Xrotation Yrotation Zrotation
						End Site
						{
							OFFSET 0.080000 -0.000000 0.000000
						}
					}
				}
			}
		}
	}
	JOINT pelvis.R
	{
		OFFSET 0.000000 0.000000 0.000000
		CHANNELS 6 Xposition Yposition Zposition Xrotation Yrotation Zrotation
		JOINT thigh.R
		{
			OFFSET -0.094325 0.001054 0.000000
			CHANNELS 3 Xrotation Yrotation Zrotation
			JOINT shin.R
			{
				OFFSET 0.000000 -0.534800 0.041000
				CHANNELS 3 Xrotation Yrotation Zrotation
				JOINT foot.R
				{
					OFFSET 0.000000 -0.452000 -0.044800
					CHANNELS 3 Xrotation Yrotation Zrotation
					JOINT toe.R
					{
						OFFSET -0.000000 -0.068500 0.109600
						CHANNELS 3 Xrotation Yrotation Zrotation
						End Site
						{
							OFFSET -0.000000 0.000000 0.067200
						}
					}
				}
				JOINT heel.R
				{
					OFFSET 0.000000 -0.452000 -0.044800
					CHANNELS 3 Xrotation Yrotation Zrotation
					JOINT heel.02.R
					{
						OFFSET 0.038000 -0.085200 0.016200
						CHANNELS 6 Xposition Yposition Zposition Xrotation Yrotation Zrotation
						End Site
						{
							OFFSET -0.080000 0.000000 -0.000000
						}
					}
				}
			}
		}
	}
}
MOTION
Frames: 4
Frame Time: 0.041667
-0.001416 0.209929 0.001650 60.309471 15.255952 73.457667 0.000000 0.000005 0.000001 0.000001 0.000002 0.000001 0.000001 -0.000002 0.000000 0.000001 -0.000001 0.000001 0.000924 0.155148 0.009274 -21.813707 0.082569 -5.870666 0.019937 0.078966 0.057518 9.176345 7.409670 53.645754 0.177025 -0.020465 -0.095062 -93.144847 52.107254 -54.851494 9.544909 -4.585594 -48.769296 -0.000002 -0.000000 -0.000002 0.021770 -0.038291 0.012954 -0.000001 0.000000 -0.000002 -0.000002 -0.000001 0.000003 -0.000002 -0.000004 0.000003 -0.000002 0.000005 0.000003 -0.009090 -0.002348 -0.024224 0.000002 0.000000 -0.000001 0.000001 0.000002 0.000003 0.000000 0.000001 -0.000002 0.032823 -0.025104 0.012281 -0.000002 -0.000000 0.000007 -0.000001 0.000002 -0.000005 -0.000002 0.000002 -0.000000 -0.000001 0.000001 0.000003 0.039230 -0.011402 0.008390 0.000002 0.000000 0.000003 0.000001 0.000000 0.000001 0.000002 0.000006 -0.000004 0.000002 -0.000000 0.000003 0.043417 0.002450 0.002889 -0.000001 0.000002 -0.000003 -0.000001 -0.000006 -0.000002 -0.000007 -0.000001 -0.000001 -0.000003 0.000002 0.000002 -0.016662 0.078957 0.057696 14.166360 3.165875 -38.094110 -0.176972 -0.020537 -0.095144 -12.047969 -17.165783 69.543504 -65.971718 -5.572977 60.034474 -0.000000 -0.000002 0.000003 -0.021773 -0.038278 0.012988 -0.000003 -0.000005 0.000000 -0.000004 -0.000001 0.000000 -0.000002 -0.000002 -0.000005 -0.000005 0.000004 0.000005 0.009114 -0.002381 -0.024211 -0.000001 0.000001 0.000001 -0.000001 -0.000002 -0.000003 0.000001 -0.000000 -0.000003 -0.032828 -0.025095 0.012286 -0.000003 -0.000003 0.000001 0.000001 0.000002 0.000001 0.000001 0.000000 -0.000002 -0.000002 -0.000003 -0.000008 -0.039192 -0.011488 0.008390 -0.000002 -0.000003 0.000001 -0.000004 0.000001 -0.000007 0.000001 0.000000 0.000002 -0.000003 -0.000002 -0.000003 -0.043421 0.002443 0.002845 -0.000005 -0.000000 0.000002 -0.000004 0.000006 0.000001 0.000003 -0.000005 0.000002 -0.000002 0.000003 -0.000000 0.000000 0.000000 -0.000000 -1.936651 2.077074 -23.730488 20.024436 -1.710730 -23.949625 -4.301160 0.019579 -0.195433 0.000002 0.000004 0.000002 -0.000004 -0.000001 -0.000002 0.000000 0.000001 -0.000000 -0.038000 -0.085200 0.016200 -0.000003 0.000000 -0.000000 -0.000000 0.000000 -0.000000 -1.819868 2.027197 -22.500487 16.001381 -1.185388 -14.789559 3.999906 0.393554 -3.973535 -0.000003 0.000001 0.000001 -0.000001 0.000003 0.000004 0.000003 0.000003 0.000002 0.038000 -0.085200 0.016200 -0.000000 -0.000005 -0.000001 
-0.002807 0.209491 0.000312 70.017628 11.933757 69.824717 0.000001 -0.000001 -0.000000 0.000001 0.000000 -0.000003 -0.000001 -0.000000 -0.000002 0.000001 0.000000 0.000000 0.000924 0.155148 0.009274 -22.548676 0.086381 2.498366 0.019937 0.078966 0.057518 7.326793 7.174350 51.351780 0.177025 -0.020465 -0.095062 -80.583562 32.223299 -56.206641 -16.230519 -8.016907 -50.009276 0.000001 -0.000002 -0.000002 0.021770 -0.038291 0.012954 0.000001 0.000002 -0.000007 -0.000001 0.000000 -0.000000 0.000002 0.000001 0.000005 -0.000000 -0.000003 0.000005 -0.009090 -0.002348 -0.024223 0.000001 -0.000001 -0.000001 -0.000001 0.000004 -0.000000 -0.000001 0.000001 -0.000002 0.032823 -0.025104 0.012281 -0.000002 0.000000 -0.000001 0.000003 0.000003 -0.000007 -0.000002 0.000003 0.000000 -0.000000 -0.000006 0.000000 0.039230 -0.011402 0.008390 0.000000 0.000001 0.000001 0.000005 0.000000 -0.000000 -0.000002 -0.000001 -0.000002 -0.000001 -0.000003 0.000005 0.043417 0.002450 0.002889 -0.000001 0.000000 -0.000005 -0.000001 -0.000004 -0.000002 -0.000001 -0.000001 -0.000001 0.000003 0.000003 -0.000001 -0.016662 0.078957 0.057696 15.145649 3.918950 -40.079304 -0.176972 -0.020537 -0.095144 -24.527817 -17.707252 63.823036 -73.861980 -13.949908 62.203865 0.000001 -0.000000 -0.000003 -0.021773 -0.038278 0.012988 0.000000 -0.000001 -0.000003 -0.000001 0.000003 0.000002 0.000000 -0.000006 -0.000008 -0.000001 -0.000000 -0.000003 0.009114 -0.002381 -0.024211 -0.000001 -0.000003 -0.000001 0.000001 -0.000000 0.000000 -0.000001 -0.000001 -0.000001 -0.032828 -0.025095 0.012286 -0.000000 -0.000001 -0.000003 -0.000002 -0.000002 -0.000001 0.000003 0.000001 0.000001 0.000001 0.000003 -0.000000 -0.039192 -0.011488 0.008390 -0.000000 0.000002 -0.000000 0.000001 0.000003 -0.000002 -0.000003 -0.000002 0.000002 -0.000000 0.000000 -0.000001 -0.043421 0.002443 0.002845 -0.000000 -0.000001 -0.000001 -0.000009 0.000000 -0.000006 0.000002 -0.000002 0.000004 0.000002 -0.000002 -0.000002 0.000000 0.000000 -0.000000 -1.901364 2.013452 -23.250683 16.400428 -1.800024 -25.000938 -4.768627 0.128629 -1.295810 -0.000003 -0.000001 0.000000 0.000003 -0.000000 0.000001 0.000002 -0.000001 -0.000000 -0.038000 -0.085200 0.016200 -0.000004 0.000002 0.000002 0.000000 0.000000 -0.000000 -1.788331 1.966284 -22.020417 7.132931 -0.880708 -11.386179 5.769303 0.863221 -8.743429 0.000000 -0.000002 0.000002 0.000004 0.000002 0.000001 0.000002 -0.000004 0.000001 0.038000 -0.085200 0.016200 -0.000002 -0.000000 0.000002 
-0.003309 0.205825 -0.003955 84.772763 12.926994 77.155927 0.000000 0.000000 -0.000000 -0.000001 0.000001 -0.000001 -0.000000 -0.000000 -0.000001 0.000001 -0.000000 -0.000001 0.000924 0.155148 0.009274 -13.805010 0.036778 -16.912776 0.019937 0.078966 0.057518 14.068688 7.689544 45.136530 0.177025 -0.020465 -0.095062 -48.395090 21.472812 -66.343895 -41.155940 -33.505855 -19.111105 0.000001 0.000000 -0.000002 0.021770 -0.038291 0.012954 0.000001 0.000001 -0.000001 -0.000001 -0.000002 0.000001 -0.000000 -0.000000 0.000005 0.000002 0.000001 -0.000003 -0.009090 -0.002348 -0.024224 0.000001 -0.000002 -0.000001 -0.000000 -0.000001 0.000003 -0.000000 -0.000001 -0.000004 0.032823 -0.025104 0.012281 -0.000001 -0.000001 0.000002 0.000002 0.000003 -0.000003 -0.000001 0.000003 0.000000 0.000002 -0.000001 -0.000005 0.039230 -0.011402 0.008390 0.000001 0.000000 0.000003 0.000005 0.000002 0.000001 -0.000000 0.000003 0.000001 -0.000000 -0.000001 0.000001 0.043417 0.002450 0.002889 0.000000 -0.000001 0.000002 -0.000001 -0.000008 -0.000005 -0.000001 0.000003 0.000003 0.000001 -0.000000 -0.000003 -0.016662 0.078957 0.057696 9.793007 5.489815 -44.494161 -0.176972 -0.020537 -0.095144 -30.300358 -19.186461 67.374004 -46.455153 -10.593724 77.253299 -0.000002 0.000004 0.000003 -0.021773 -0.038278 0.012988 0.000000 -0.000003 0.000000 0.000001 0.000001 0.000006 0.000000 0.000001 -0.000001 0.000000 -0.000003 -0.000002 0.009113 -0.002381 -0.024211 0.000003 -0.000001 0.000004 -0.000000 0.000001 0.000000 -0.000002 0.000001 -0.000003 -0.032828 -0.025095 0.012286 0.000004 -0.000001 -0.000003 0.000001 0.000000 -0.000001 0.000002 -0.000001 -0.000001 -0.000001 0.000001 -0.000006 -0.039192 -0.011488 0.008390 -0.000001 -0.000001 0.000001 0.000002 0.000001 -0.000002 -0.000000 -0.000000 -0.000002 -0.000006 -0.000003 0.000001 -0.043421 0.002443 0.002845 0.000001 -0.000001 0.000000 -0.000004 0.000007 -0.000006 -0.000003 -0.000003 0.000003 0.000002 0.000001 -0.000001 0.000000 0.000000 -0.000000 -1.822580 2.066393 -24.115429 5.482276 -2.103469 -28.700148 -11.217031 0.547262 -5.528066 0.000000 0.000001 0.000001 -0.000001 0.000003 -0.000002 0.000000 0.000000 0.000004 -0.038000 -0.085200 0.016200 0.000001 0.000001 0.000001 0.000000 0.000000 -0.000000 -1.710370 2.017580 -22.885242 -8.730488 0.005837 -0.928838 20.875560 3.258879 -35.062909 0.000000 -0.000003 0.000002 0.000001 0.000001 0.000000 0.000007 -0.000003 0.000003 0.038000 -0.085200 0.016200 0.000001 -0.000000 0.000000 
-0.006552 0.212859 -0.004481 93.118715 16.111554 77.498557 -0.000000 0.000000 -0.000000 0.000001 0.000000 0.000000 -0.000000 0.000000 0.000001 0.000001 0.000000 0.000001 0.000924 0.155147 0.009274 -20.951207 0.042553 -28.041374 0.019937 0.078966 0.057518 13.232060 6.809619 40.677813 0.177024 -0.020465 -0.095062 -32.497507 34.862153 -102.647150 -0.057810 -3.747279 -38.277920 -0.000001 -0.000000 -0.000000 0.021770 -0.038291 0.012954 0.000001 0.000004 0.000001 -0.000002 0.000000 -0.000000 0.000001 0.000003 0.000005 -0.000002 0.000003 0.000000 -0.009090 -0.002348 -0.024224 -0.000000 -0.000001 0.000001 -0.000001 0.000001 -0.000000 -0.000000 0.000000 -0.000002 0.032823 -0.025104 0.012281 -0.000002 -0.000000 0.000005 -0.000001 0.000002 -0.000007 -0.000003 -0.000005 0.000003 -0.000004 0.000003 0.000001 0.039230 -0.011402 0.008390 0.000001 -0.000001 0.000004 -0.000001 0.000001 0.000005 -0.000001 0.000003 0.000001 -0.000002 -0.000005 0.000003 0.043417 0.002450 0.002889 0.000000 0.000002 -0.000005 -0.000004 -0.000005 0.000002 0.000001 0.000003 -0.000003 0.000002 0.000002 0.000002 -0.016662 0.078956 0.057696 7.413791 6.851322 -51.653678 -0.176972 -0.020537 -0.095144 -21.597854 -5.419894 33.187114 -59.042723 3.302694 56.035705 0.000000 -0.000001 0.000002 -0.021773 -0.038278 0.012988 0.000002 0.000002 -0.000003 -0.000003 0.000001 -0.000001 -0.000001 -0.000004 -0.000007 0.000002 -0.000003 -0.000002 0.009114 -0.002381 -0.024211 -0.000000 -0.000004 0.000000 0.000002 -0.000006 0.000000 0.000000 0.000001 -0.000003 -0.032828 -0.025095 0.012286 0.000005 -0.000000 -0.000001 -0.000002 0.000001 -0.000003 0.000001 0.000002 -0.000002 0.000002 -0.000002 -0.000001 -0.039192 -0.011488 0.008390 0.000003 0.000003 -0.000002 0.000001 0.000005 -0.000005 -0.000000 -0.000005 0.000001 -0.000003 0.000005 0.000001 -0.043421 0.002443 0.002845 0.000003 0.000003 0.000000 -0.000004 0.000004 0.000001 0.000000 -0.000004 -0.000000 0.000001 0.000001 0.000001 0.000000 0.000000 0.000000 -1.834251 1.843458 -21.806139 -8.234213 -2.404811 -32.285287 -18.757566 0.382363 -3.858528 -0.000002 0.000001 0.000000 -0.000000 -0.000001 0.000001 0.000002 -0.000000 0.000001 -0.038000 -0.085200 0.016200 0.000002 -0.000002 -0.000002 0.000000 0.000000 0.000000 -1.730056 1.803039 -20.575265 -31.839900 0.097496 -1.341350 39.731268 3.133598 -33.527708 -0.000003 -0.000003 -0.000001 0.000002 0.000004 0.000000 0.000007 -0.000002 0.000001 0.038000 -0.085200 0.016200 0.000000 -0.000001 -0.000002 
